<?xml version="1.0" encoding="UTF-8" standalone="no"?>
<!-- Created with Inkscape (http://www.inkscape.org/) -->
<svg xmlns:rdf="http://www.w3.org/1999/02/22-rdf-syntax-ns#" xmlns="http://www.w3.org/2000/svg" height="175" width="350" version="1.1" xmlns:cc="http://creativecommons.org/ns#" xmlns:dc="http://purl.org/dc/elements/1.1/" viewBox="0 0 350 175">
 <metadata>
  <rdf:RDF>
   <cc:Work rdf:about="">
    <dc:format>image/svg+xml</dc:format>
    <dc:type rdf:resource="http://purl.org/dc/dcmitype/StillImage"/>
    <dc:title/>
   </cc:Work>
  </rdf:RDF>
 </metadata>
 <path d="m146.81 21.256c-3.65-.037-7.17.687-9.38 2.256-1.96 1.396-4.34 3.992-5.29 5.769-2.41 4.503-4.29 4.074-10.49-2.394-5.04-5.258-5.82-5.625-11.9-5.625-7.76 0-15.881 3.706-17.918 8.176-1.363 2.991-6 4.367-6 1.781 0-.711-1.951-3.242-4.334-5.625-3.963-3.963-4.962-4.332-11.689-4.332-8.849 0-14.379 3.166-18.625 10.662-3.302 5.831-3.559 10.222-.963 16.435 5.421 12.975 20.917 16.703 31.285 7.526 7.266-6.433 6.075-7.613-6.703-6.649-10.076.761-11.229.614-13.319-1.695-2.284-2.524-2.262-2.529 12.282-2.529h14.568v-4.375c0-4.326.059-4.374 5.312-4.295 4.007.060 4.699.330 2.813 1.101-3.99 1.633-6.924 5.651-7.723 10.573-.673 4.146-.265 5.015 4.481 9.529 5.563 5.292 9.273 6.109 17.313 3.805 4.72-1.353 4.23-4.328 4.06 24.673l-.12 19.137 5.37-.39 5.37-.38.27-19.378c.14-10.657.28-25.703.31-33.438.04-11.431.38-14.062 1.86-14.062 1 0 2.26.769 2.81 1.707s2.94 2.697 5.29 3.908l4.3 2.203-4.62 2.369c-5.31 2.725-5.28 2.645-2.6 6.731 2.08 3.176.89 4.241-1.77 1.582-1.16-1.167-1.5 4.111-1.5 23.75v25.248h4.38 4.37v-21.721c0-17.936-.33-21.997-1.9-23.303-3.03-2.513-1.2-2.851 3.18-.586 3.08 1.592 5.69 1.878 11.26 1.233 6.27-.729 7.58-.503 9.77 1.685l2.53 2.528 2.72-5.231c1.49-2.876 4.05-7.508 5.68-10.293l2.96-5.062-6.2-9.938c-3.4-5.465-6.2-10.357-6.22-10.873-.01-.515 2.08-.938 4.66-.937 4.32.001 4.96.487 8.2 6.25 1.93 3.437 3.72 6.25 3.99 6.25s2.06-2.813 3.98-6.262c3.23-5.763 3.87-6.249 8.2-6.25 2.57-.001 4.68.391 4.68.869 0 .479-3.76 7.65-8.35 15.938-4.6 8.287-10.75 19.568-13.67 25.068l-5.32 10-8.25.369-8.25.371.36 11.504.36 11.504 4.69.389c3.71.307 4.68.904 4.68 2.868 0 2.28-.73 2.45-9.06 2.11l-9.06-.37-.81-16.872c-.45-9.281-.55-17.857-.23-19.06.76-2.87 9.16-3.156 9.16-.313 0 1.303 1.31 1.875 4.3 1.875 2.37 0 4.58-.446 4.92-.990.33-.544-1.32-.764-3.68-.489-3.31.387-4.29.046-4.29-1.509 0-3.17-10.74-2.846-11.57.349-1.26 4.815.63 36.339 2.26 37.689.88.73 5.4 1.15 10.14.95 8.24-.36 8.56-.50 8.94-3.73.35-3.073-.03-3.396-4.38-3.754l-4.76-.393-.37-10.311-.36-10.312h7.48c6.18 0 7.8-.456 9.32-2.619 1.34-1.925 2.61-2.405 4.75-1.811 2.83.782 2.84.742.51-1.125-2.21-1.765-2.26-2.255-.63-5.64 1.79-3.703 1.8-3.703 4.86-1.377l3.05 2.328-5.06 6.685c-6.16 8.132-7.6 10.529-5.62 9.303 1.04-.645 1.38 1.462 1.23 7.619l-.21 8.512-.73-7.5c-.63-6.525-.85-7.033-1.72-3.902-.56 1.979-.65 5.213-.22 7.187.49 2.223.28 3.59-.56 3.59s-1.35 3.36-1.35 8.9c0 8.66-.07 8.87-2.81 7.99-9.78-3.13-17.8-.69-24.23 7.37l-3.4 4.26-3.55-5.37c-4.07-6.14-9.34-8.82-16.81-8.54-6.9.25-12.44 3.29-14.99 8.21-1.95 3.78-2.16 3.88-3.455 1.58-.758-1.35-2.984-4.01-4.948-5.93-4.052-3.94-11.137-4.72-15.253-1.68-2.041 1.51-2.837 1.53-5.004.13-1.648-1.07-6.498-1.67-13.438-1.67h-10.861v19.87 19.88h5 5l-.266-14.06-.265-14.06-.401 13.43-.402 13.44h-3.707-3.709v-18.75-18.75h3.75c2.062 0 3.75.59 3.75 1.3 0 .89.751.89 2.418 0 3.426-1.84 10.286-1.54 13.066.57 2.048 1.55 2.703 1.54 4.965-.04 3.516-2.46 10.82-2.26 14.092.39 4.584 3.71 5.459 7.15 5.459 21.45v13.83h-4.375-4.375v-14.91c0-13.82-.184-14.98-2.5-15.71-1.375-.44-3.625-.44-5 0-2.316.73-2.5 1.89-2.5 15.71v14.91h-4.375-4.375v-14.22c0-10.85-.426-14.58-1.799-15.72-2.383-1.97-8.5-1.18-9.137 1.19-0.4 1.49-.262 1.53.664.21.653-.92 2.763-1.48 4.783-1.25l3.614.42.351 15.31.352 15.31h5.547 5.549l.351-15.31.350-15.31h3.125 3.125l.351 15.31.352 15.31h5.586 5.586l.045-5.94.045-5.93 2.769 3.29c3.18 3.78 12.07 8.58 15.89 8.58 5.34 0 15.44-6.53 18.47-11.95 1.11-1.99 1.47-1.8 3.29 1.73 2.29 4.43 6.1 7.28 12.79 9.58l.03.01c4.27 1.47 10.67.95 14.05-1.14.77-.48 1.4-.24 1.4.53 0 .86 1.83 1.25 4.69 1.02l4.69-.39.71-8.75c.40-4.82.82-7.28.94-5.48.60 8.91 14.87 17.38 24.71 14.66 4.58-1.27 13.01-8.5 13.01-11.17 0-1.43-7.58-1.06-16.99.81-3.04.61-4.63.10-7.5-2.42l-3.63-3.2 14.68-.04c8.08-.02 14.69-.46 14.69-.98 0-.51-6.74-.76-15-.55-8.25.22-15 .87-15 1.45 0 .59 1.79 2.58 3.98 4.41 3.12 2.63 4.79 3.19 7.81 2.59 2.11-.41 6.58-1.1 9.94-1.53l6.11-.78-2.85 3.85c-3.28 4.44-8.71 7.03-14.38 6.87-5.21-.15-13.81-4.62-16.36-8.51-2.93-4.47-2.71-13.95.47-20.12 2.73-5.29 5.92-7.24 14.18-8.67 8.51-1.47 19.83 7.26 19.85 15.29 0 1.51.56 3.09 1.25 3.52.69.42 1.25 4.99 1.25 10.15v9.37l4.69-.39 4.69-.38.62-11.88c.35-6.53 1.01-10.96 1.47-9.83.46 1.12 4.85 3.61 9.75 5.53s9.19 3.96 9.54 4.52c1.06 1.71-4.89 1.14-8.67-.83-3.13-1.63-3.96-1.63-7.19.04-2.01 1.04-3.65 2.28-3.65 2.76 0 2.25 9.46 8.96 13.57 9.61 6.02.95 13.73-1.87 17.31-6.35 3.33-4.16 3.58-6.54 1.03-9.9-1.67-2.21-1.7-2.07-.41 1.47 1.22 3.33 1.05 4.4-1.17 7.5-3.06 4.27-11.22 7.15-17.15 6.03-3.6-.67-12.99-7.51-11.76-8.57 3.03-2.59 6.15-3.04 9.41-1.35 5.13 2.68 11.67 2.14 11.67-.97 0-.73-.37-.95-.82-.50s-1.44.31-2.19-.30c-.75-.62-5.16-2.65-9.81-4.51-6.39-2.55-8.63-4.09-9.19-6.32-.93-3.69 3.26-10.81 7.49-12.74 8.7-3.96 15.93-2.95 21.45 3.01 3.92 4.23 3.87 5.94-.23 7.81-2.85 1.29-3.67 1.15-6.02-1.06-3.19-2.99-10.88-3.44-13.11-.76-1.17 1.42-1.01 2.04.79 2.99 4.59 2.45 18.4 7.73 17.23 6.6-.67-.65-4.55-2.5-8.62-4.13-8.93-3.56-10.44-6-3.72-6 3.03 0 5.69.92 7.44 2.56 2.63 2.47 2.88 2.49 7.2.43 3.97-1.9 4.33-2.44 3.11-4.75-3.82-7.28-11.38-11.41-18.44-10.09-6.51 1.22-10.71 3.8-13.63 8.37l-2.64 4.11-.02-13.44-.02-13.438h-5-5l-.13 17.808c-.08 11.81-.46 16.39-1.12 13.59-2.33-9.85-11.96-16.97-21.23-15.69-10.1 1.41-14.48 5.27-17.6 15.53-.55 1.82-1-4.08-1.06-14.05-.09-14.952-.37-17.188-2.13-17.188-1.52 0-1.81-.701-1.16-2.813.47-1.547.92-3.491.98-4.32.07-.829.49-1.279.94-.998.46.280 4.14-2.225 8.2-5.567l7.36-6.074 4.41 3.543c11.09 8.905 12.76 10.747 13.63 14.979.52 2.593 1.63 4.378 2.71 4.378 2.74 0 3.3-17.118.64-19.326-2.1-1.74-2.24-1.535-3.8 5.512l-.81 3.69-2.52-5.565c-2.98-6.563-3.89-10.289-2.27-9.293.63.393 6.03-2.967 12-7.467 6-4.531 12.12-8.179 13.7-8.179 3.22 0 5-1.898 2.96-3.157-.74-.460 4.1-4.887 10.92-9.97l12.26-9.143 37.18-.912c20.46-.502 37.19-1.325 37.19-1.828 0-.504-17.29-1.275-38.44-1.715-21.14-.440-52.05-1.147-68.69-1.574l-30.25-.777 2.46-4.838 2.47-4.836h-6.19c-5.93 0-6.32.217-9.01 5-1.54 2.75-3.44 5-4.22 5s-2.68-2.25-4.23-5c-2.69-4.786-3.07-5-9.02-5-5.75 0-6.12.178-4.92 2.418 2.13 3.981 1.48 4.444-1.85 1.316-2.54-2.387-7.44-3.693-12.13-3.74zm-37.18 1.238c5.64 0 6.95.519 10.68 4.25l4.25 4.25v15.125 15.125h-4.27c-2.35 0-4.46-.563-4.69-1.252-.28-.836-1.87-.836-4.79 0-8.05 2.309-11.968 1.588-16.955-3.115-4.16-3.924-4.553-4.833-3.878-8.986 1.268-7.818 4.318-9.707 16.493-10.213 11.46-.477 13.41-2.024 7.47-5.92-3.68-2.411-11.59-1.478-12.73 1.502-.40 1.033-1.541 1.564-2.538 1.181-.997-.382-4.02-.343-6.715.088-4.577.732-4.9 1.063-4.9 5v4.215h-14.375c-7.907 0-14.375.464-14.375 1.031 0 .568 1.324 2.276 2.941 3.795 2.718 2.554 3.712 2.699 13.125 1.914 11.395-.950 12.517-.066 6.109 4.821-5.183 3.953-10.42 5.096-16.794 3.664-5.792-1.302-9.841-4.877-12.366-10.92-2.417-5.784-2.217-9.77.785-15.654 3.518-6.897 8.864-9.891 17.666-9.897 6.224-.004 7.554.458 10.86 3.764 2.072 2.072 4.091 4.786 4.486 6.031.540 1.701 1.642 2.127 4.44 1.717 2.047-.301 3.446-.995 3.107-1.543-2.53-4.094 7.474-9.973 16.964-9.973zm36.58.018c8.14.023 12.2 2.018 14.59 7.156 1.03 2.221 2.56 3.79 3.4 3.486.83-.303 1.91.075 2.38.840.60.967-.36 1.145-3.15.588-2.2-.441-3.72-.343-3.38.217 1.1 1.776-3.62.781-6.77-1.43-4.51-3.155-13.74-2.602-13.72.820 0 .786 4.5 3.206 10 5.375 10.54 4.162 13.7 4.477 4.68.467l-5.32-2.361 10.28-.088c9.97-.086 10.32.012 12.08 3.35 1.67 3.175 1.55 3.89-1.53 9.373-2.77 4.954-3.93 5.936-6.96 5.937-3.34.001-3.48-.173-1.75-2.185 3-3.496 3.37-5.85 1.41-9.125-1.21-2.03-1.53-2.22-.94-.563 1.43 4.079.84 7.024-2.03 10.078l-2.71 2.879 4.83.535c4.75.528 4.74.536-.80.610v.002c-3.09.041-8.44.412-11.88.824-6.51.780-12-1.178-15.27-5.44-2.21-2.887-2.05-3.184 2.91-5.55 3.5-1.673 4.9-1.823 6.28-.678 2.56 2.124.95 3.056-1.7.980-2.01-1.582-2.06-1.541-.50.448 1.11 1.412 3.43 2.187 6.56 2.187 8.56 0 5.94-3.222-6.34-7.816-4.42-1.653-8.58-3.86-9.23-4.903-1.8-2.852-.04-7.879 4.26-12.185 3.32-3.312 4.75-3.844 10.32-3.828zm16.25 5.238c.26.033.63.277 1.08.725.81.813 1.19 1.769.83 2.125-.83.834-2.31-.644-2.31-2.313 0-.392.15-.570.40-.537zm-93.437 2.688c-3.99.007-9.472 2.802-9.472 5.212 0 1.46 1.947 1.844 9.375 1.844 5.156 0 9.375-.476 9.375-1.056 0-1.776-4.188-4.952-7.678-5.823-.489-.122-1.029-.179-1.6-.177zm.317.826c1.733.016 1.783.209.293 1.152-1.321.836-.663 1.272 2.5 1.656 3.935.478 3.98.529.543.598-2.063.041-5.156-.316-6.875-.795-2.747-.765-2.849-.978-.836-1.752 1.259-.484 3.228-.870 4.375-.859zm40.07.140c.68.009 1.31.101 1.73.272.85.342-.14.601-2.21.576-2.06-.026-2.75-.306-1.54-.623.61-.159 1.34-.233 2.02-.225zm37.65 1.129c1.72 0 3.97.545 5 1.211 1.34.863-.10 1.213-5 1.213-4.89 0-6.33-.350-5-1.213 1.04-.666 3.29-1.211 5-1.211zm75.86.631c28.62.052 66.94.641 67.79 1.379.29.248-21.79.451-49.06.451-32.53 0-49.58-.434-49.58-1.262 0-.438 13.68-.599 30.85-.568zm-113.51.721c1.36.002 2.67.074 3.61.217 1.88.285.04.512-4.08.505-4.13-.007-5.66-.241-3.42-.519 1.13-.139 2.53-.206 3.89-.203zm18.8.013c.43.018.81.135 1.01.342.42.416-.32.711-1.64.656-1.45-.059-1.75-.356-.75-.755.45-.181.94-.260 1.38-.243zm72.58 2.485c2.16 0 4.31.062 5.94.191 3.27.258.60.469-5.94.469-6.53 0-9.2-.211-5.93-.469 1.63-.129 3.78-.191 5.93-.191zm18.75 0c1.25 0 2.5.071 3.44.215 1.89.286.35.521-3.44.521-3.78 0-5.32-.235-3.43-.521.94-.144 2.19-.215 3.43-.215zm24.15 1.219c1.43.006 2.59.037 3.37.095l5.62.422-7.15 5.141c-3.93 2.827-6.74 5.545-6.25 6.041.50.495.34.766-.35.599-2.27-.549-5.63 1.579-4.79 3.038.45.787.37 1.03-.17.539-.55-.492-2.17-.070-3.61.937v-.002c-4.21 2.954-20.54 2.419-24.87-.816l-3.45-2.569 4.7-6.009 4.69-6.012 15-.865c6.19-.358 12.96-.559 17.26-.539zm-54.13 1.164c.34-.009.74 1.669.89 3.73.14 2.061-.34 3.748-1.07 3.748-.74 0-1-.872-.59-1.939.45-1.181.22-1.62-.58-1.123-.73.449-1.01 1.631-.63 2.629.39.997.17 1.486-.47 1.087-.65-.398-1.83.491-2.62 1.975-1.4 2.623-1.36 2.639 1.47.658 4.91-3.444 15.22-2.106 10.77 1.399-.85.670-3.11 1.594-5.02 2.05-2.58.616-3.67 1.8-4.23 4.575-.41 2.058-1.23 4.044-1.83 4.414s-1.08 1.343-1.05 2.162c.02.819.61.493 1.32-.725.71-1.217 1.88-1.85 2.6-1.406.84.522 1-.153.44-1.908-1.19-3.778 1.5-6.705 5.3-5.752 1.8.453 2.71.269 2.26-.459-.42-.668.49-2.089 2.02-3.156l2.77-1.942-2.52-3.457c-4.89-6.711-4.95-6.585 3.51-6.535l7.88.047-5 4.51c-2.75 2.48-4.01 3.797-2.81 2.925 3.24-2.348 2.66-.479-1.47 4.733-2.01 2.538-3.83 6.019-4.06 7.738-.29 2.241-1.29 3.247-3.53 3.557-3.91.540-6.48 2.569-5.42 4.279.44.716.22.939-.50.496-.71-.442-1.99.033-2.84 1.057l-.01.002c-.85 1.023-2.16 1.861-2.91 1.861-.78 0-.58-.792.47-1.832 1.38-1.376 1.67-3.785 1.19-9.687-.56-6.741-.20-8.699 2.5-13.778 1.73-3.255 3.42-5.925 3.77-5.933zm5.32 3.851c.29.010.82.492 1.78 1.453 2.26 2.26 2 3.436-.55 2.524-.86-.307-1.56-1.477-1.56-2.598 0-.928.04-1.389.33-1.379zm-87 1.248c-2.94-.006-6.02.536-7.81 1.709-3.614 2.367-3.76 3.679-.744 6.696 4.424 4.424 17.294-.196 16.224-5.827-.32-1.654-3.88-2.57-7.67-2.578zm.96 1.129c6.2 0 7.43 1.851 3.52 5.279-4.59 4.026-14.059 2.966-14.059-1.574 0-2.034 4.759-3.705 10.539-3.705zm36.48 1.25c.69 0 2.34.827 3.67 1.836h.01c1.33 1.009 1.87 1.834 1.18 1.834s-2.35-.825-3.68-1.834-1.86-1.836-1.18-1.836zm56.06 5.951c.60.177.68 2.644.68 9.334 0 5.919-.34 11.651-.76 12.739-.58 1.514-2.61 1.976-8.67 1.976-6.94 0-8-.319-8.74-2.639-.53-1.685-.11-3.363 1.17-4.642 1.19-1.192 2-1.42 2-.561 0 .795-.56 1.792-1.25 2.217s-1.23 1.443-1.2 2.262c.02.819 1.49-.902 3.25-3.824 4.07-6.746 6.88-6.831 9.83-.299 1.24 2.757 2.49 4.78 2.78 4.496.28-.284-.65-2.791-2.06-5.57-1.58-3.083-2.1-5.353-1.34-5.821.68-.421 1.26-1.997 1.28-3.504.02-1.506.87-3.831 1.87-5.166.52-.685.90-1.078 1.16-.998zm-19.88 1.549c.31 0 .56.563.56 1.25 0 .688-.60 1.25-1.33 1.25s-.97-.562-.55-1.25c.43-.687 1.02-1.25 1.32-1.25zm22.63.604c.30-.016.66.045 1.05.193 1.03.396 1.88.941 1.88 1.211s-.85.492-1.88.492-1.87-.545-1.87-1.211c0-.416.33-.659.82-.685zm-73.32 2.841l2.81 1.868c2.72 1.798 2.83 2.642 3.16 23.275l.34 21.408h-3.15-3.16v-23.273-23.278zm-100 .305v23.59 23.586l13.597.12c12.967.12 13.805-.03 18.033-3.27 4.987-3.824 6.757-6.944 7.864-13.866.897-5.613-2.823-14.149-8.076-18.533-4.04-3.37-12.535-4.852-17.629-3.076l-3.789 1.32v-4.935c0-4.924-.011-4.936-5-4.936h-5zm162.57 0c-.73 0-1.32.563-1.32 1.25 0 .688.24 1.25.55 1.25.30 0 .90-.562 1.32-1.25.43-.687.18-1.25-.55-1.25zm24.81.141c2.71.001 5.38.062 7.35.185 3.92.248.38.448-7.87.446-8.25-.003-11.46-.205-7.13-.450 2.16-.122 4.93-.182 7.65-.181zm-37.49.013c.43.018.80.133 1.01.340.42.416-.32.711-1.64.657-1.46-.060-1.75-.357-.76-.756.46-.181.95-.258 1.39-.241zm-148.64 1.092h3.75c3.552 0 3.75.270 3.75 5.086 0 4.742.190 5.016 2.813 4.063 1.547-.562 5.669-.981 9.16-.930 7.871.114 11.876 2.862 15.567 10.686 3.812 8.067 2.574 15.025-3.811 21.41-4.321 4.325-5.251 4.685-11.795 4.685-3.907 0-8.192-.58-9.521-1.29-1.667-.89-2.418-.89-2.418 0h.005c0 .71-1.687 1.29-3.75 1.29h-3.75v-22.5-22.5zm173.94 1.254c1.49 0 2.48.159 2.2.354h-.01c-.28.194-1.5 1.106-2.71 2.027-1.87 1.433-2.19 1.382-2.19-.354 0-1.246 1.05-2.027 2.71-2.027zm-26.76.039c1.69-.024 2.82.713 2.82 1.836 0 2.317-.19 2.318-3.2.039-2.37-1.789-2.36-1.836.38-1.875zm35.76.156c.47.001.95.017 1.43.049 5.71.385 8.27 2.348 3.9 2.989-1.29.189-2.98 1.029-3.75 1.865-1.06 1.152-.97 1.277.36.517 1.15-.656 1.46-.521.90.389-.47.764-1.6 1.105-2.5.760s-2.42.383-3.39 1.617c-1.65 2.095-1.6 2.119.73.369 2.3-1.723 2.37-1.704.85.238-.91 1.163-2.37 1.84-3.24 1.506s-2.37.403-3.34 1.637c-1.65 2.095-1.6 2.119.73.369 2.32-1.739 2.38-1.716.79.313-.94 1.203-1.79 2.144-1.88 2.089-.08-.054-.86-.381-1.72-.728s-1.56-2.514-1.56-4.816c0-5.546 4.71-9.163 11.69-9.163zm-94.82 2.305c2.41 0 4.38.563 4.38 1.25 0 .688-1.97 1.25-4.38 1.25-2.4 0-4.37-.562-4.37-1.25 0-.687 1.97-1.25 4.37-1.25zm-18.12 3.748l.26 10.938.25 10.937.42-10.31.42-10.313h3.71 3.69v18.125 18.121h-3.64c-2.01 0-3.85-.59-4.09-1.32-.31-.94-1.47-.94-3.935 0-4.521 1.71-12.434 1.69-16.084-.04-1.58-.76-4.278-3.123-5.997-5.263-2.794-3.479-3.171-5.251-3.552-16.758l-.426-12.865h3.863 3.865v10.75c0 10.631.048 10.799 4.401 15.152 3.794 3.795 4.957 4.29 8.437 3.6 3.822-.758 8.368-4.904 8.348-7.625 0-.687-.95.277-2.107 2.145-2.402 3.872-7.745 5.531-11.442 3.552-5.098-2.729-6.387-6.331-6.387-17.851v-10.973h-5.111-5.109l.424 13.514c.399 12.758.624 13.753 4.015 17.81 1.975 2.363 4.786 4.982 6.248 5.812h.002c3.231 1.85 11.946 2.06 16.324.39 2.163-.82 3.203-.80 3.203.08 0 .73 2.04 1.12 4.69.90l4.69-.38.34-19.065.35-19.063h-5.03-5.04zm13.75 1.252h4.38 4.37v18.125 18.121h-4.37-4.38v-18.121-18.125zm65.7 3.75c.30 0 .55.563.55 1.25 0 .688-.60 1.25-1.33 1.25-.72 0-.97-.562-.55-1.25.43-.687 1.02-1.25 1.33-1.25zm-131.32 3.746c-1.613 0-4.663 1.456-6.785 3.24-3.064 2.579-3.845 4.212-3.845 8.036 0 3.923.740 5.382 4.062 8l.006-.004c5.12 4.035 7.76 4.043 13.008.041 3.468-2.645 4.179-4.011 4.179-8.014 0-3.854-.774-5.478-3.845-8.062-2.116-1.78-5.166-3.237-6.78-3.237zm128.48.465c.40-.006.81.065 1.22.223 1.83.702 1.76 1.338-.65 6.299-1.47 3.034-3.07 5.517-3.54 5.517s-1.15-1.828-1.5-4.062c-.65-4.138 1.67-7.937 4.47-7.977zm-128.48.787c1.534 0 4.27 1.165 6.082 2.59 4.84 3.807 4.673 11.258-.335 14.824h-.002c-4.531 3.226-7.298 3.212-11.682-.058-6.96-5.192-2.798-17.356 5.937-17.356zm136.48 1.252c1.59 0 2.89.236 2.89.522s-2.27 2.318-5.05 4.517l-5.05 3.998 2.16-4.517c1.56-3.269 2.95-4.52 5.05-4.52zm11.29.051c1.86-.034 3.43 1.199 4.72 3.699 1.07 2.063 1.77 3.75 1.55 3.75s-2.34-1.665-4.72-3.699c-3.95-3.378-4.08-3.704-1.55-3.75zm15.2 4.277c.05.002.10.017.15.047.69.425 1.25 4.363 1.25 8.75 0 4.388-.56 8.325-1.25 8.75-.79.489-1.25-2.72-1.25-8.75 0-5.653.40-8.825 1.1-8.797zm7.65 16.922h3.75 3.75v26.246 26.25h-3.75-3.75v-26.25-26.246zm-51.26.008h3.75 3.75v26.248 26.25h-3.75c-2.06 0-3.75-.62-3.75-1.38 0-.83-.88-1.02-2.18-.48-7.6 3.13-12.31 2.88-19.99-1.09-5.33-2.76-7.83-7.92-7.83-16.19 0-7.95 2.63-12.1 10.07-15.89 5.8-2.96 9.38-3.09 15.41-.58l4.52 1.9v-9.4-9.388zm-50.7 14.588c6.65.07 11.2 2.61 14.83 8.21 6.78 10.46 3.59 21.35-7.98 27.26-5.96 3.03-9.15 2.98-15.52-.25-10.03-5.08-13.174-15.06-8-25.42 3.34-6.69 7.74-9.5 15.32-9.78.46-.02.91-.02 1.35-.02zm-.15 8.05c-2.17.01-4.28 1.13-6.84 3.42-5.6 5-5.51 10.61.25 15.42 5.03 4.2 6.48 4.32 11.89.98 6.89-4.26 6.93-13.38.09-17.86-1.99-1.31-3.71-1.97-5.39-1.96zm39.6.70c-4.7 0-11.25 6.1-11.25 10.48 0 3.39 3.6 8.69 6.79 9.98 5.27 2.13 9.92.80 12.6-3.62l2.01-3.3-2.69 3.09c-2.02 2.33-3.93 3.1-7.67 3.1-8.77 0-12.59-8.41-6.86-15.08 5.41-6.29 14.47-3.61 16.98 5.04.89 3.06 1.14 3.28 1.23 1.05.18-4.53-6.26-10.74-11.14-10.74zm41.26.40c-3.02 0-5.39.86-6.87 2.5-2.25 2.48-2.19 2.5 6.87 2.5s9.12-.02 6.88-2.5c-1.49-1.64-3.85-2.5-6.88-2.5zm-80.74.13c1.59.03 3.22.64 5.03 1.82 5.76 3.77 5.48 12.43-.51 15.96-4.68 2.77-6.21 2.65-10.56-.83-4.93-3.94-5.04-10.02-.24-14.14 2.23-1.92 4.22-2.85 6.28-2.81zm80.74 1.12c2.67 0 5.2.57 5.63 1.25.47.78-1.68 1.25-5.63 1.25-3.94 0-6.1-.47-5.62-1.25.42-.68 2.95-1.25 5.62-1.25z"/>
 <g stroke="#000" stroke-width="1px" fill="none">
  <path d="m237.95 98.874v.90090-.22522.33784c0 .03754.0375.11261 0 .11261s0-.15015 0-.11261v.22522c0 .0375.0375.11262 0 .11262s-.0375-.11262 0-.11262c.0531 0 .0889.0651.11261.11262.0148.0296 0 .39156 0 .45045v.67567c0 .0375.0375.11261 0 .11261s0-.0751 0-.11261"/>
  <path d="m241.55 98.649c.0375.15015.0823.29868.11262.45045.0147.07362 0 .15015 0 .22522 0 .03754.0375.11261 0 .11261s0-.15015 0-.11261v.45045-.22522.33784c0 .03754.0375.11261 0 .11261s0-.15015 0-.11261v.33784c0 .0375.0375.11261 0 .11261s0-.15015 0-.11261v.45045c0-.0751.0531-.27832 0-.22523-.16896.16895-.11262.56674-.11262.78829 0 .0375.0375.11261 0 .11261s0-.0751 0-.11261"/>
  <path d="m242.12 98.761c.005.01027.18362.48596.33783.56306.0336.01679.0861-.02654.11262 0 .0265.02654.0375.11261 0 .11261s-.0375-.11261 0-.11261c.0531 0 .0889.06513.11261.11261.0168.03357-.0265.08607 0 .11261s.0861-.02654.11261 0c.0266.02654-.0265.08607 0 .11261.0266.02654.079-.01679.11262 0 .0475.02374.15015.07507.11261.11261-.0375.03754-.11261-.16570-.11261-.11261 0 .08394.0533.16587.11261.22522.0265.02654.0861-.02654.11261 0 .0265.02654-.0265.08607 0 .11261.15015.15015.11261-.18769.11261.11261"/>
  <path d="m243.69 99.887v-.11261c0-.03754-.0265-.08607 0-.11261s.0861.02654.11262 0c.0265-.02654-.0265-.08607 0-.11261s.0958.03357.11261 0c.0336-.06715 0-.15016 0-.22523 0-.03754-.0375.11261 0 .11261s-.0265-.08607 0-.11261.0861.02654.11261 0c.0265-.02654-.0265-.08607 0-.11261s.0861.02654.11261 0c.0266-.02654-.0265-.08607 0-.11261.0531-.05309.17213.05309.22523 0 .0265-.02654-.0265-.08607 0-.11261s.0861.02654.11261 0c.0266-.02654-.0265-.08607 0-.11261s.0861.02654.11261 0c.0265-.02654-.0265-.08607 0-.11261s.086.02654.11262 0c.0265-.02654-.0168-.07904 0-.11261.10749-.21498.56808-.17743.45045-.56306.22938.34096.22522.377.22522.67568 0 .30030.0375-.03754-.11261.11261-.005.0051 0 .50997 0 .56306 0 .0531.005.55796 0 .56306-.15015.15015-.11261-.18769-.11261.11261v.11262c0 .0375.0375.11261 0 .11261s0-.15015 0-.11261v.45045-.22523.45045c0 .0375-.0265.0861 0 .11261.15015.15015.11261-.18768.11261.11262v.33783"/>
  <path d="m241.33 98.311v-.22522"/>
  <path d="m236.26 98.198h.78829-.22523c1.0511 0 .11262-.11261.33784.11261.0531.05309.17214-.05309.22523 0 .0265.02654.0375.11261 0 .11261s-.0375-.11261 0-.11261c.0531 0 .0651.08887.11261.11261.0407.02036.48474 0 .56306 0h.67568c.0375 0 .0861-.02654.11261 0 .0265.02654-.0265.08607 0 .11261.0166.01656.33784-.01325.33784 0 0 .03754-.15015 0-.11261 0h.67567c.0375 0 .11261-.03754.11261 0s-.0751 0-.11261 0"/>
  <path d="m241.1 97.748.33784.67568"/>
  <path d="m241.33 98.311.45045.67568"/>
 </g>
</svg>
